<?xml version="1.0" standalone="no"?>
<!DOCTYPE svg PUBLIC "-//W3C//DTD SVG 20010904//EN"
 "http://www.w3.org/TR/2001/REC-SVG-20010904/DTD/svg10.dtd">
<svg version="1.0" xmlns="http://www.w3.org/2000/svg"
 width="89.5000000pt" height="60.0000000pt" viewBox="0 0 895.000000 600.000000"
 preserveAspectRatio="xMidYMid meet">

<g transform="translate(0.000000,600.000000) scale(0.100000,-0.100000)"
fill="#000000" stroke="none">
<path d="M0 3000 l0 -3000 4475 0 4475 0 0 3000 0 3000 -4475 0 -4475 0 0
-3000z m595 2850 c290 -14 410 -26 494 -52 75 -23 158 -67 209 -112 45 -39
106 -134 126 -194 27 -82 147 -763 147 -837 2 -201 -142 -295 -452 -295 -76 0
-119 -4 -119 -10 0 -11 50 -310 110 -655 18 -99 36 -207 41 -240 5 -33 13 -78
19 -100 5 -22 10 -57 10 -78 l0 -39 -232 7 c-153 5 -237 11 -244 19 -6 6 -33
153 -58 326 -26 173 -58 380 -72 460 -13 80 -42 262 -64 405 -22 143 -44 283
-49 310 -6 28 -22 129 -36 225 -14 96 -37 247 -51 335 -14 88 -29 189 -35 225
-5 36 -18 119 -28 185 -11 66 -17 123 -14 128 2 4 19 5 36 3 18 -3 136 -10
262 -16z m1431 -72 c4 -4 13 -36 20 -70 7 -35 30 -151 52 -258 22 -107 59
-285 81 -395 22 -110 72 -353 111 -540 39 -187 82 -392 95 -455 53 -263 147
-710 160 -772 8 -37 15 -70 15 -74 0 -5 -472 3 -476 9 0 1 -15 74 -32 162 -17
88 -49 252 -71 365 -22 113 -69 358 -106 545 -36 187 -83 428 -104 535 -22
107 -58 296 -81 420 -22 124 -55 296 -72 384 -20 105 -27 160 -20 165 13 8
418 -12 428 -21z m704 -15 c190 -4 372 -7 406 -5 47 2 64 -1 75 -14 14 -17 16
-266 19 -1921 l0 -283 234 0 c159 0 237 -4 242 -11 10 -17 74 -279 74 -306 l0
-23 -388 0 c-214 0 -444 3 -512 7 l-123 6 7 461 c3 254 9 758 12 1122 l7 661
-99 6 c-54 4 -143 7 -197 7 -114 0 -103 -13 -137 155 -12 61 -23 118 -26 127
-5 17 18 28 46 22 8 -1 170 -6 360 -11z m1531 -35 c3 -5 9 -80 12 -166 4 -87
9 -184 11 -217 3 -33 8 -163 11 -290 4 -126 8 -257 10 -290 1 -33 6 -199 10
-370 3 -170 8 -332 11 -359 11 -133 15 -213 15 -348 l1 -148 234 0 c234 0 234
0 244 -22 21 -50 81 -290 76 -303 -4 -11 -89 -14 -504 -15 l-499 -1 -6 188
c-4 103 -11 406 -17 673 -19 912 -30 1374 -34 1377 -1 2 -88 6 -192 9 -104 3
-192 8 -196 12 -7 8 -68 256 -68 279 0 13 51 14 438 7 255 -4 440 -11 443 -16z
m1119 -133 c73 -134 194 -357 268 -495 50 -94 149 -277 320 -590 82 -151 200
-369 262 -485 62 -115 116 -214 120 -220 22 -29 290 -536 290 -549 0 -14 -25
-16 -195 -18 -107 -1 -209 -2 -226 -2 -31 -1 -34 3 -158 236 l-126 237 -240
-6 c-132 -3 -243 -8 -247 -12 -4 -3 -3 -60 2 -126 6 -66 13 -173 16 -237 l7
-118 -236 0 -237 0 0 28 c0 16 -11 236 -25 488 -13 252 -34 632 -45 844 -20
394 -33 624 -50 927 -6 94 -10 187 -10 207 l0 36 216 -2 217 -3 77 -140z
m-4213 -2494 c75 -1 56 29 208 -326 59 -137 133 -308 165 -380 32 -71 117
-265 188 -430 167 -383 181 -414 181 -393 1 9 -17 111 -39 225 -33 175 -91
493 -155 858 -8 44 -28 157 -45 250 -16 94 -30 174 -30 179 0 12 422 -2 434
-14 9 -9 66 -291 146 -730 11 -63 32 -171 45 -240 14 -69 38 -197 55 -285 43
-224 59 -310 75 -385 16 -76 63 -317 100 -510 14 -74 35 -178 47 -230 11 -52
26 -129 34 -170 7 -41 27 -142 44 -225 17 -82 34 -167 37 -187 l6 -38 -239 0
-239 1 -99 202 c-55 111 -157 324 -228 472 -71 149 -150 313 -175 365 -25 52
-97 205 -160 340 -63 135 -117 247 -120 250 -3 3 -3 -8 1 -25 3 -16 46 -271
96 -565 50 -294 103 -607 120 -695 48 -260 50 -270 50 -308 l0 -37 -102 -1
c-57 -1 -164 -2 -238 -3 l-135 -1 -17 100 c-10 55 -20 125 -23 155 -3 30 -16
123 -30 205 -13 83 -32 200 -41 260 -9 61 -24 162 -34 225 -10 63 -39 248 -64
410 -25 162 -51 320 -56 350 -6 30 -17 100 -25 155 -12 86 -47 315 -84 555 -6
36 -31 190 -56 343 -25 152 -44 281 -41 285 2 4 89 4 193 1 103 -4 216 -7 250
-8z m5596 -61 c24 -41 74 -134 111 -205 38 -72 90 -168 116 -215 100 -179 496
-906 738 -1355 41 -77 116 -214 165 -305 49 -91 102 -187 117 -215 15 -27 46
-86 70 -130 50 -93 73 -134 146 -267 30 -53 54 -101 54 -106 0 -6 -59 -13
-137 -16 -76 -3 -186 -8 -245 -11 l-106 -5 -20 32 c-10 18 -77 142 -148 275
l-129 243 -45 0 c-78 0 -474 -20 -478 -25 -5 -4 14 -214 28 -320 5 -38 12 -95
15 -125 3 -30 8 -62 11 -71 2 -8 -2 -22 -8 -31 -11 -13 -52 -17 -255 -22
l-242 -7 -5 43 c-5 45 -19 184 -36 378 -5 63 -17 189 -25 280 -51 575 -99
1120 -130 1480 -19 228 -42 491 -50 584 -9 93 -13 171 -10 175 6 5 283 16 413
16 42 0 42 0 85 -75z m-2488 36 c33 -9 101 -37 152 -62 122 -60 200 -134 248
-235 44 -94 57 -182 59 -404 l1 -170 -230 0 -230 0 -8 235 c-5 144 -13 245
-20 260 -40 83 -192 104 -257 35 -22 -23 -22 -29 -16 -127 13 -181 46 -268
224 -588 99 -179 240 -426 267 -470 26 -42 111 -200 177 -330 185 -360 241
-714 147 -915 -32 -68 -112 -146 -189 -183 -111 -54 -177 -66 -350 -67 -182 0
-253 16 -410 92 -76 36 -109 60 -166 117 -122 123 -142 194 -144 511 -1 116
-2 218 -1 228 1 16 19 17 241 17 132 0 240 -1 240 -2 1 -2 3 -109 6 -238 6
-262 12 -289 72 -323 19 -11 60 -21 95 -24 50 -3 68 0 95 16 50 32 55 57 43
209 -18 230 -72 361 -366 892 -87 157 -184 332 -216 390 -85 152 -184 372
-215 476 -21 72 -27 116 -31 229 -5 126 -3 146 17 197 49 132 183 221 375 251
67 11 331 -1 390 -17z m1528 -51 c10 -33 31 -100 47 -150 15 -49 30 -104 33
-121 l6 -32 -144 -7 c-158 -8 -157 -7 -132 -68 8 -18 19 -57 26 -87 7 -30 23
-91 36 -135 13 -44 35 -120 49 -170 14 -49 44 -153 66 -230 22 -77 54 -187 70
-245 17 -58 53 -184 81 -280 28 -96 57 -197 64 -225 7 -27 34 -122 60 -210
252 -867 262 -902 255 -908 -11 -11 -487 -19 -493 -10 -4 6 -13 35 -21 64 -8
30 -42 153 -76 274 -33 121 -99 359 -146 530 -46 171 -98 358 -114 418 -87
314 -191 697 -259 952 -28 105 -59 217 -69 250 l-18 60 -165 3 -165 2 -47 182
c-26 99 -46 182 -44 184 4 5 838 21 977 20 l105 -1 18 -60z m-2577 37 c8 -5
13 -266 18 -897 7 -1009 9 -2075 4 -2081 -7 -7 -496 -6 -507 1 -8 4 -10 131
-6 443 2 240 7 655 10 922 3 267 8 740 11 1053 l7 567 226 0 c124 0 231 -4
237 -8z"/>
<path d="M804 5507 c3 -17 15 -84 26 -148 11 -64 24 -145 29 -180 12 -77 69
-423 77 -460 4 -23 12 -28 49 -33 66 -10 114 1 121 30 3 12 -6 92 -20 176 -84
485 -98 562 -106 583 -13 35 -47 52 -118 59 l-63 6 5 -33z"/>
<path d="M5370 4754 c0 -5 9 -137 20 -294 11 -157 20 -311 20 -342 0 -33 5
-60 12 -64 10 -6 319 -7 325 0 3 2 -362 695 -371 703 -3 4 -6 2 -6 -3z"/>
<path d="M6845 1930 c17 -153 26 -242 35 -345 5 -60 16 -175 25 -254 8 -79 15
-152 15 -163 0 -20 3 -21 177 -14 98 4 180 9 182 12 2 2 -22 49 -53 104 -31
55 -56 103 -56 105 0 3 -38 74 -83 157 -46 84 -119 220 -161 303 -43 82 -80
152 -83 155 -3 3 -2 -24 2 -60z"/>
</g>
</svg>
